# xmcd CD database file
#
# Track frame offsets:
#	150
#	19221
#	34768
#	65575
#	80255
#	95807
#	109891
#	122407
#	145667
#	166897
#	180551
#	202293
#
# Disc length: 2935 seconds
#
# Revision: 4
# Processed by: cddbd v1.5.2PL0 Copyright (c) Steve Scherf et al.
# Submitted via: CDex 1.70
#
DISCID=a40b750c
DTITLE=Schau-Pau Acoustic Blues - Whiskey and Wimmen'
DYEAR=1999
DGENRE=Blues
TTITLE0=Boom Boom
TTITLE1=Dust My Broom
TTITLE2=Whiskey And Wimmen'
TTITLE3=Driften Driften
TTITLE4=Catfish Blues
TTITLE5=Worried Life Blues
TTITLE6=I Gonna Miss You
TTITLE7=Alabama Blues
TTITLE8=Bootle Up And Go
TTITLE9=Rollin' And Tumblin'
TTITLE10=Come On In My Kitchen
TTITLE11=Rock Me Babe
EXTD=Acoustic Blues YEAR: 1999
EXTT0=
EXTT1=
EXTT2=
EXTT3=
EXTT4=
EXTT5=
EXTT6=
EXTT7=
EXTT8=
EXTT9=
EXTT10=
EXTT11=
PLAYORDER=
